<svg width="60" height="48" viewBox="0 0 60 48" fill="none" xmlns="http://www.w3.org/2000/svg">
<path d="M13.2188 19.2188C13.2188 19.2188 12.9219 19.5156 12.3281 20.1094C11.7344 20.7031 10.625 21 9 21C7.375 21 5.96875 20.4062 4.78125 19.2188C3.59375 18.0312 3 16.625 3 15C3 13.375 3.59375 11.9688 4.78125 10.7812C5.96875 9.59375 7.375 9 9 9C10.625 9 12.0312 9.59375 13.2188 10.7812C14.4062 11.9688 15 13.375 15 15C15 16.625 14.4062 18.0312 13.2188 19.2188ZM55.2188 19.2188C55.2188 19.2188 54.9219 19.5156 54.3281 20.1094C53.7344 20.7031 52.625 21 51 21C49.375 21 47.9688 20.4062 46.7812 19.2188C45.5938 18.0312 45 16.625 45 15C45 13.375 45.5938 11.9688 46.7812 10.7812C47.9688 9.59375 49.375 9 51 9C52.625 9 54.0312 9.59375 55.2188 10.7812C56.4062 11.9688 57 13.375 57 15C57 16.625 56.4062 18.0312 55.2188 19.2188ZM54 24C55.625 24 57.0312 24.5938 58.2188 25.7812C59.4062 26.9688 60 28.375 60 30V33C60 33.8125 59.7031 34.5156 59.1094 35.1094C58.5156 35.7031 57.8125 36 57 36H50.8125C50.625 34.5625 50.2188 33.1875 49.5938 31.875C48.9688 30.5625 48.1562 29.3906 47.1562 28.3594C46.1562 27.3281 45.0312 26.4688 43.7812 25.7812C44.9688 24.5938 46.375 24 48 24H54ZM37.4062 20.9062C37.4062 20.9062 36.8906 21.4219 35.8594 22.4531C34.8281 23.4844 32.875 24 30 24C27.125 24 24.6562 22.9688 22.5938 20.9062C20.5312 18.8438 19.5 16.375 19.5 13.5C19.5 10.625 20.5312 8.15625 22.5938 6.09375C24.6562 4.03125 27.125 3 30 3C32.875 3 35.3438 4.03125 37.4062 6.09375C39.4688 8.15625 40.5 10.625 40.5 13.5C40.5 16.375 39.4688 18.8438 37.4062 20.9062ZM37.2188 27C40.2188 27 42.7656 28.0469 44.8594 30.1406C46.9531 32.2344 48 34.7812 48 37.7812V40.5C48 41.75 47.5625 42.8125 46.6875 43.6875C45.8125 44.5625 44.75 45 43.5 45H16.5C15.25 45 14.1875 44.5625 13.3125 43.6875C12.4375 42.8125 12 41.75 12 40.5V37.7812C12 34.7812 13.0469 32.2344 15.1406 30.1406C17.2344 28.0469 19.7812 27 22.7812 27H23.625C25.6875 28 27.8125 28.5 30 28.5C32.1875 28.5 34.3125 28 36.375 27H37.2188ZM16.2188 25.7812C14.3438 26.7812 12.7812 28.1875 11.5312 30C10.2812 31.8125 9.5 33.8125 9.1875 36H3C2.1875 36 1.48438 35.7031 0.890625 35.1094C0.296875 34.5156 0 33.8125 0 33V30C0 28.375 0.59375 26.9688 1.78125 25.7812C2.96875 24.5938 4.375 24 6 24H12C13.625 24 15.0312 24.5938 16.2188 25.7812Z" fill="#172655"/>
</svg>
